<svg width="60" height="60" viewBox="0 0 60 60" fill="none" xmlns="http://www.w3.org/2000/svg">
<path d="M57.49 21.5H54V15.232C54 13.725 52.774 12.5 51.268 12.5H26.515L21.515 5.5H2.732C1.226 5.5 0 6.726 0 8.232V51.919H0.006C0.001 52.482 0.176 53.033 0.528 53.494C1.018 54.134 1.76 54.5 2.565 54.5H47.324C48.48 54.5 49.498 53.721 49.774 52.687L60 24.649V24.472C60 22.75 58.944 21.5 57.49 21.5ZM2 8.232C2 7.828 2.329 7.5 2.732 7.5H20.485L25.485 14.5H51.267C51.671 14.5 51.999 14.828 51.999 15.232V21.5H12.731C12.587 21.5 12.444 21.512 12.305 21.536C11.332 21.699 10.523 22.409 10.282 23.312L2 45.899V8.232ZM47.869 52.083C47.803 52.328 47.578 52.5 47.324 52.5H2.565C2.322 52.5 2.18 52.361 2.117 52.278C2.054 52.196 1.957 52.022 1.994 51.87L12.185 23.917C12.251 23.672 12.476 23.5 12.73 23.5H54H57.49C57.87 23.5 57.967 24.046 57.992 24.319L47.869 52.083Z" fill="#0DB981"/>
</svg>
