<svg width="60" height="60" viewBox="0 0 60 60" fill="none" xmlns="http://www.w3.org/2000/svg">
<g clip-path="url(#clip0_11_2)">
<path d="M11.68 13L10.847 8H7.857C7.411 6.28 5.859 5 4 5C1.794 5 0 6.794 0 9C0 11.206 1.794 13 4 13C5.859 13 7.411 11.72 7.858 10H9.152L9.652 13H9.614L12.051 26.1702L14.785 39.016C12.32 39.204 10.267 41.102 10.025 43.49C9.883 44.895 10.345 46.302 11.293 47.348C12.242 48.397 13.594 49 15 49H17C17 52.309 19.691 55 23 55C26.309 55 29 52.309 29 49H40C40 52.309 42.691 55 46 55C49.309 55 52 52.309 52 49H56C56.553 49 57 48.553 57 48C57 47.447 56.553 47 56 47H51.65C50.824 44.673 48.607 43 46 43C43.393 43 41.176 44.673 40.35 47H28.65C27.824 44.673 25.607 43 23 43C20.393 43 18.176 44.673 17.35 47H15C14.158 47 13.348 46.638 12.776 46.007C12.199 45.368 11.928 44.546 12.015 43.691C12.167 42.182 13.561 41.001 15.188 41.001H15.979C15.993 41.001 16.004 41.001 16.018 41.001H55.012C57.763 41 60 38.763 60 36.013V13H11.68ZM4 11C2.897 11 2 10.103 2 9C2 7.897 2.897 7 4 7C5.103 7 6 7.897 6 9C6 10.103 5.103 11 4 11ZM46 45C48.206 45 50 46.794 50 49C50 51.206 48.206 53 46 53C43.794 53 42 51.206 42 49C42 46.794 43.794 45 46 45ZM23 45C25.206 45 27 46.794 27 49C27 51.206 25.206 53 23 53C20.794 53 19 51.206 19 49C19 46.794 20.794 45 23 45ZM58 36.013C58 37.66 56.66 39 55.013 39H16.821L12.051 15H58V36.013Z" fill="#0DB981"/>
<path d="M-48.5106 -60H164.255L142.979 67.6596H-48.5106V-123.83H-91.0638" stroke="#0DB981" stroke-width="12.5"/>
</g>
<defs>
<clipPath id="clip0_11_2">
<rect width="60" height="60" fill="white"/>
</clipPath>
</defs>
</svg>
