<svg width="59" height="59" viewBox="0 0 59 59" fill="none" xmlns="http://www.w3.org/2000/svg">
<g clip-path="url(#clip0_13_2)">
<path d="M52 21C51.447 21 51 21.447 51 22V54H2V5H51V6C51 6.553 51.447 7 52 7C52.553 7 53 6.553 53 6V3H0V56H53V22C53 21.447 52.553 21 52 21Z" fill="#0DB981"/>
<path d="M58.707 7.293C58.316 6.902 57.684 6.902 57.293 7.293L27 37.586L13.93 24.516C13.539 24.125 12.907 24.125 12.516 24.516C12.125 24.907 12.125 25.539 12.516 25.93L26.293 39.707C26.488 39.902 26.744 40 27 40C27.256 40 27.512 39.902 27.707 39.707L58.707 8.707C59.098 8.316 59.098 7.684 58.707 7.293Z" fill="#0DB981"/>
</g>
<defs>
<clipPath id="clip0_13_2">
<rect width="59" height="59" fill="white"/>
</clipPath>
</defs>
</svg>
