<svg width="221" height="216" viewBox="0 0 221 216" fill="none" xmlns="http://www.w3.org/2000/svg">
<g clip-path="url(#clip0_11_12)">
<path d="M209.826 130.834C211.563 123.214 220.829 116.27 220.829 108.168C220.829 100.066 211.177 93.1213 209.826 85.5017C208.474 77.882 213.397 67.3688 209.826 60.3279C206.255 53.287 194.962 50.6828 190.04 44.7028C185.118 38.7229 185.407 26.8594 179.23 21.9404C173.053 17.0214 161.857 19.6255 154.426 16.4426C146.994 13.2598 142.844 2.36079 135.122 0.335311C127.401 -1.69016 118.715 6.12238 110.511 6.12238C102.307 6.12238 93.4274 -1.11146 85.8027 0.335311C78.1779 1.78208 73.2556 12.6811 66.4995 16.1533C59.7434 19.6255 48.0649 16.732 41.8879 21.651C35.7109 26.57 35.7109 38.9158 30.6921 44.7028C25.6732 50.4899 14.3809 53.0941 10.9063 60.3279C7.43173 67.5617 12.8366 77.6891 10.9063 85.5017C8.97598 93.3142 0 100.066 0 108.168C0 116.27 9.6516 123.214 11.0028 130.834C12.354 138.453 7.43173 148.967 11.0028 156.007C14.5739 163.048 25.8663 165.653 30.7886 171.633C35.7109 177.613 35.4214 189.476 41.5984 194.395C47.7754 199.314 58.9712 196.42 66.2099 199.893C73.4486 203.365 77.9849 213.878 85.5131 215.711C93.0414 217.543 101.921 209.924 110.125 209.924C118.329 209.924 127.112 217.35 134.736 215.711C142.361 214.071 147.283 203.365 154.039 199.893C160.796 196.42 172.474 199.314 178.651 194.395C184.828 189.476 184.539 177.805 189.461 171.633C194.383 165.46 205.772 163.241 209.247 156.007C212.721 148.774 207.992 138.743 209.826 130.834ZM91.1111 77.4962C93.02 77.4962 94.886 78.0619 96.4732 79.1217C98.0604 80.1815 99.2975 81.6879 100.028 83.4503C100.758 85.2127 100.95 87.152 100.577 89.023C100.205 90.894 99.2856 92.6126 97.9358 93.9615C96.586 95.3103 94.8662 96.229 92.994 96.6011C91.1218 96.9733 89.1812 96.7823 87.4176 96.0523C85.654 95.3222 84.1466 94.086 83.0861 92.4999C82.0255 90.9137 81.4595 89.049 81.4595 87.1413C81.4595 84.5833 82.4763 82.13 84.2864 80.3212C86.0964 78.5124 88.5513 77.4962 91.1111 77.4962ZM129.717 135.367C127.809 135.367 125.943 134.801 124.355 133.741C122.768 132.682 121.531 131.175 120.801 129.413C120.07 127.65 119.879 125.711 120.251 123.84C120.624 121.969 121.543 120.251 122.893 118.902C124.243 117.553 125.962 116.634 127.835 116.262C129.707 115.89 131.647 116.081 133.411 116.811C135.175 117.541 136.682 118.777 137.742 120.363C138.803 121.949 139.369 123.814 139.369 125.722C139.369 128.28 138.352 130.733 136.542 132.542C134.732 134.351 132.277 135.367 129.717 135.367ZM137.728 92.8319L96.516 133.534C94.6474 134.915 92.3433 135.575 90.0268 135.394C87.7103 135.213 85.5369 134.203 83.9056 132.549C82.2744 130.896 81.2949 128.71 81.1469 126.392C80.999 124.075 81.6925 121.782 83.1002 119.935L124.023 79.0394C125.869 77.4593 128.244 76.6336 130.673 76.7274C133.103 76.8211 135.407 77.8275 137.126 79.5452C138.845 81.2629 139.852 83.5656 139.945 85.993C140.039 88.4205 139.213 90.7939 137.632 92.639L137.728 92.8319Z" fill="#0DB981"/>
<rect x="75" y="67" width="76" height="78" fill="#0DB981"/>
<g clip-path="url(#clip1_11_12)">
<path d="M59.7865 154.418L156.418 57.7865L160.214 61.582L63.582 158.214L59.7865 154.418Z" fill="white"/>
<path d="M75.1053 89.2105C83.9873 89.2105 91.2105 81.9873 91.2105 73.1053C91.2105 64.2232 83.9873 57 75.1053 57C66.2232 57 59 64.2232 59 73.1053C59 81.9873 66.2232 89.2105 75.1053 89.2105ZM75.1053 62.3684C81.0266 62.3684 85.8421 67.1839 85.8421 73.1053C85.8421 79.0266 81.0266 83.8421 75.1053 83.8421C69.1839 83.8421 64.3684 79.0266 64.3684 73.1053C64.3684 67.1839 69.1839 62.3684 75.1053 62.3684Z" fill="white"/>
<path d="M144.895 126.789C136.013 126.789 128.789 134.013 128.789 142.895C128.789 151.777 136.013 159 144.895 159C153.777 159 161 151.777 161 142.895C161 134.013 153.777 126.789 144.895 126.789ZM144.895 153.632C138.973 153.632 134.158 148.816 134.158 142.895C134.158 136.973 138.973 132.158 144.895 132.158C150.816 132.158 155.632 136.973 155.632 142.895C155.632 148.816 150.816 153.632 144.895 153.632Z" fill="white"/>
</g>
</g>
<defs>
<clipPath id="clip0_11_12">
<rect width="221" height="216" fill="white"/>
</clipPath>
<clipPath id="clip1_11_12">
<rect width="102" height="102" fill="white" transform="translate(59 57)"/>
</clipPath>
</defs>
</svg>
