<svg class="svg-icon" style="width: 1.0224609375em;height: 1em;vertical-align: middle;fill:#0db981;overflow: hidden;" viewBox="0 0 1047 1024" version="1.1" xmlns="http://www.w3.org/2000/svg"><path d="M994.061111 620.248408c8.230497-36.122736 52.12648-69.044723 52.126479-107.453708s-45.724982-71.330972-52.126479-107.453708 16.918243-85.962966 0-119.342203-70.416472-45.724982-93.736214-74.074471-21.947991-84.591217-51.21198-107.910958S766.80795 93.039365 731.599714 77.95012 676.729735 11.191647 640.149749 1.5894s-77.73247 27.434989-116.598704 27.43499S442.617827-5.269347 406.495091 1.5894s-59.442477 58.527977-91.449964 74.988971-87.334716 2.743499-116.598705 26.06324S169.182434 184.489329 145.405443 211.924318s-77.27522 39.780734-93.736213 74.074471 9.144996 82.304968 0 119.342203S0 474.385715 0 512.7947s45.724982 71.330972 52.12648 107.453708-16.918243 85.962966 0 119.342203 70.416472 45.724982 93.736213 74.074471 21.947991 84.591217 51.21198 107.910958 82.304968 9.602246 116.598704 26.06324 55.784478 66.301224 91.449964 74.988971 77.73247-27.434989 116.598705-27.43499 80.475968 35.208236 116.598704 27.43499 59.442477-58.527977 91.449964-74.988971 87.334716-2.743499 116.598705-26.06324 27.892239-78.646969 51.21198-107.910958 77.27522-39.780734 93.736213-74.074471-5.944248-81.847718 2.743499-119.342203zM431.643831 367.389257a45.724982 45.724982 0 1 1-45.724982 45.724982 45.724982 45.724982 0 0 1 45.724982-45.724982z m182.899928 274.349893a45.724982 45.724982 0 1 1 45.724982-45.724982 45.724982 45.724982 0 0 1-45.724982 45.724982z m37.951735-201.647171L457.249821 633.051403a45.724982 45.724982 0 0 1-63.557725-64.472225l193.873924-193.873924a45.724982 45.724982 0 0 1 64.472225 64.472225z" fill="#0db981" /></svg>