<svg width="57" height="57" viewBox="0 0 57 57" fill="none" xmlns="http://www.w3.org/2000/svg">
<g clip-path="url(#clip0_13_21)">
<path d="M57 12.002H41.741C42.556 10.837 43 9.453 43 7.995C43 6.12 42.274 4.362 40.957 3.045C38.228 0.315999 33.787 0.315999 31.058 3.045L28.229 5.874L25.401 3.045C22.672 0.315999 18.231 0.315999 15.502 3.045C14.185 4.362 13.459 6.12 13.459 7.995C13.459 9.453 13.903 10.837 14.718 12.002H0V26.002H5V56.002H53V26.002H57V12.002ZM32.472 4.459C34.422 2.51 37.594 2.51 39.543 4.459C40.482 5.399 41 6.654 41 7.995C41 9.335 40.482 10.591 39.543 11.53L39.071 12.002H24.929L29.643 7.288L32.472 4.459ZM16.916 11.53C15.977 10.591 15.459 9.335 15.459 7.995C15.459 6.654 15.977 5.399 16.916 4.459C18.866 2.51 22.038 2.51 23.987 4.459L26.815 7.288L23.28 10.823C23.073 11.03 22.883 11.264 22.699 11.512C22.645 11.585 22.592 11.664 22.54 11.741C22.48 11.829 22.417 11.908 22.36 12.001H17.388L16.916 11.53ZM2 24.002V14.002H16.559H21.292H23.547H28V24.002H5H2ZM28 26.002V38.002H7V26.002H28ZM7 40.002H28V54.002H7V40.002ZM30 54.002V40.002H51V54.002H30ZM51 38.002H30V26.002H51V38.002ZM55 24.002H53H30V14.002H39.899H55V24.002Z" fill="#0DB981"/>
</g>
<defs>
<clipPath id="clip0_13_21">
<rect width="57" height="57" fill="white"/>
</clipPath>
</defs>
</svg>
