<svg width="60" height="60" viewBox="0 0 60 60" fill="none" xmlns="http://www.w3.org/2000/svg">
<path d="M42.595 0H17.405C14.977 0 13 1.977 13 4.405V55.594C13 58.023 14.977 60 17.405 60H42.594C45.023 60 47 58.023 47 55.595V4.405C47 1.977 45.023 0 42.595 0ZM15 8H45V46H15V8ZM17.405 2H42.594C43.921 2 45 3.079 45 4.405V6H15V4.405C15 3.079 16.079 2 17.405 2ZM42.595 58H17.405C16.079 58 15 56.921 15 55.595V48H45V55.595C45 56.921 43.921 58 42.595 58Z" fill="#0DB981"/>
<path d="M30 49C27.794 49 26 50.794 26 53C26 55.206 27.794 57 30 57C32.206 57 34 55.206 34 53C34 50.794 32.206 49 30 49ZM30 55C28.897 55 28 54.103 28 53C28 51.897 28.897 51 30 51C31.103 51 32 51.897 32 53C32 54.103 31.103 55 30 55Z" fill="#0DB981"/>
<path d="M26 5H30C30.553 5 31 4.553 31 4C31 3.447 30.553 3 30 3H26C25.447 3 25 3.447 25 4C25 4.553 25.447 5 26 5Z" fill="#0DB981"/>
<path d="M33 5H34C34.553 5 35 4.553 35 4C35 3.447 34.553 3 34 3H33C32.447 3 32 3.447 32 4C32 4.553 32.447 5 33 5Z" fill="#0DB981"/>
</svg>
