<svg xmlns="http://www.w3.org/2000/svg" xmlns:xlink="http://www.w3.org/1999/xlink" width="266" height="60" viewBox="0 0 266 60">
  <defs>
    <ellipse id="site_logo_new-a" cx="22" cy="21.5" rx="22" ry="21.5"/>
  </defs>
  <g fill="none" transform="translate(2 2)">
    <path fill="#031F70" d="M263.9,57.2 L36.6,57.2 C30.5,57.2 25.5,52.2 25.5,46.1 L25.5,21.2 L252.8,21.2 C258.9,21.2 263.9,26.2 263.9,32.3 L263.9,57.2 L263.9,57.2 Z"/>
    <path fill="#FFF" d="M238.4,28.4 L242.2,28.4 L242.2,40.8 L242.5,40.8 L247.4,34.8 L250.9,34.8 L245.5,41.3 L252.1,49.4 L247.7,49.4 L242.3,41.9 L242.2,41.9 L242.2,49.4 L238.4,49.4 L238.4,28.4 L238.4,28.4 Z M56.9,29.4 L56.9,40.9 C56.9,44.8 58.1,47 61.2,47 C64.3,47 65.5,44.4 65.5,41.2 L65.5,29.4 L69.1,29.4 L69.1,41.8 C69.1,46.9 65.8,49.7 61.1,49.7 C55.7,49.7 52.8,47 52.8,41.6 L52.8,29.4 L56.9,29.4 L56.9,29.4 Z M77.5,36.8 C78.8,35.4 80.6,34.8 82.4,34.8 C85.7,34.8 87.5,36.6 87.5,40.2 L87.5,49.4 L83.7,49.4 L83.7,40.6 C83.7,38.6 82.8,37.3 80.8,37.3 C78.9,37.3 77.5,38.5 77.5,40.9 L77.5,49.4 L73.7,49.4 L73.7,35.1 L77.5,35.1 L77.5,36.8 L77.5,36.8 Z M95.8,49.4 L92,49.4 L92,35.1 L95.8,35.1 L95.8,49.4 L95.8,49.4 Z M91.7,30.8 C91.7,29.7 92.6,28.6 93.9,28.6 C95.2,28.6 96.2,29.7 96.2,30.8 C96.2,32 95.3,33.2 93.9,33.2 C92.6,33.2 91.7,32 91.7,30.8 L91.7,30.8 L91.7,30.8 Z M104.2,49.4 L98.2,35 L102.2,35 C103.4,38.3 104.7,41.4 105.9,45.4 L106,45.4 C107.3,41.4 108.5,38.3 109.8,35 L113.4,35 L107,49.4 L104.2,49.4 L104.2,49.4 Z M124.7,40.5 C124.9,38.3 124.1,36.8 122.2,36.8 C120,36.8 119.1,38.5 119.1,40.5 L124.7,40.5 L124.7,40.5 Z M119,42.6 C118.9,45.3 120.8,47.3 123.2,47.3 C124.6,47.3 126.1,46.8 127,46.2 L128.1,48.2 C126.2,49.4 124.1,49.8 122.5,49.8 C118.2,49.8 115,46.7 115,42 C115,37.6 118.2,34.8 122.3,34.8 C126.8,34.8 128.6,38.4 128.3,42.6 L119,42.6 L119,42.6 Z M135.7,37.6 L136.5,36.5 C136.9,35.9 137.8,34.8 139,34.8 C139.9,34.8 140.8,35.3 141.6,36.1 L140.2,38.7 C139.6,38.4 139.2,38.2 138.4,38.2 C137.1,38.2 135.8,39.3 135.8,42.3 L135.8,49.4 L132,49.4 L132,35.1 L135.8,35.1 L135.8,37.6 L135.7,37.6 L135.7,37.6 Z M151.8,37.8 C150.9,37.2 150.1,36.9 149.4,36.9 C148.6,36.9 147.7,37.4 147.7,38.4 C147.7,39.5 149.1,40.2 150.7,41.4 C152.7,42.9 153.3,44.4 153.3,45.7 C153.3,47.7 151.1,49.8 148,49.8 C146,49.8 144.5,49.1 143.2,48.2 L144.4,46.2 C145.3,46.9 146.5,47.6 147.5,47.6 C148.6,47.6 149.6,47 149.6,45.8 C149.6,44.4 148.1,43.7 146.7,42.7 C145.1,41.6 143.9,40.5 143.9,38.7 C143.9,36.4 146.1,34.8 148.9,34.8 C150.5,34.8 152,35.2 153.1,36.1 L151.8,37.8 L151.8,37.8 Z M162.6,41.8 C160.7,42.4 159.8,43.5 159.8,45.1 C159.8,46.4 160.6,47.2 161.5,47.2 C163,47.2 165,45.3 164.7,41.1 L162.6,41.8 L162.6,41.8 Z M163.8,48 C162.8,48.9 161.5,49.7 160.1,49.7 C157.9,49.7 156,48 156,45.3 C156,42.6 158,41.1 161.3,40.1 L164.7,39.1 C164.5,37.8 163.3,37 162.1,37 C160.5,37 159.3,37.6 158.3,38.5 L157.1,36.7 C158.9,35.2 160.6,34.7 162.6,34.7 C165.2,34.7 168.5,35.6 168.5,40 L168.5,45.8 C168.5,47 168.6,48.3 169.1,49.3 L165.1,49.3 C164.8,48.8 164.7,48 164.7,47.2 L163.8,48 L163.8,48 Z M172.7,28.4 L176.5,28.4 L176.5,49.4 L172.7,49.4 L172.7,28.4 L172.7,28.4 Z M210.2,41.8 C208.3,42.4 207.4,43.5 207.4,45.1 C207.4,46.4 208.2,47.2 209.1,47.2 C210.6,47.2 212.6,45.3 212.3,41.1 L210.2,41.8 L210.2,41.8 Z M211.4,48 C210.4,48.9 209.1,49.7 207.7,49.7 C205.5,49.7 203.6,48 203.6,45.3 C203.6,42.6 205.6,41.1 208.9,40.1 L212.3,39.1 C212.1,37.8 210.9,37 209.7,37 C208.1,37 206.9,37.6 205.9,38.5 L204.7,36.7 C206.5,35.2 208.2,34.7 210.2,34.7 C212.8,34.7 216.1,35.6 216.1,40 L216.1,45.8 C216.1,47 216.2,48.3 216.7,49.3 L212.7,49.3 C212.4,48.8 212.3,48 212.3,47.2 L211.4,48 L211.4,48 Z M224.1,36.8 C225.4,35.4 227.2,34.8 229,34.8 C232.4,34.8 234.1,36.6 234.1,40.2 L234.1,49.4 L230.3,49.4 L230.3,40.6 C230.3,38.6 229.4,37.3 227.4,37.3 C225.5,37.3 224.1,38.5 224.1,40.9 L224.1,49.4 L220.3,49.4 L220.3,35.1 L224.1,35.1 L224.1,36.8 L224.1,36.8 Z M190.4,47 L192.5,47 C194.7,47 196.4,45.8 196.4,43.6 C196.4,41.3 194.7,40.3 192.5,40.3 L190.5,40.3 L190.5,47 L190.4,47 L190.4,47 Z M190.4,37.8 L191.7,37.8 C194,37.8 195.6,36.3 195.6,34.5 C195.6,32.7 194.3,32 192.5,32 L190.4,32 L190.4,37.8 L190.4,37.8 Z M186.4,49.4 L186.4,29.4 L193.6,29.4 C197,29.4 199.3,31 199.3,33.7 C199.3,36.9 196.7,38.2 195.3,38.6 L195.3,38.7 C197.8,38.8 200.6,40.5 200.6,43.6 C200.6,47 197.7,49.5 193,49.5 L186.4,49.5 L186.4,49.4 L186.4,49.4 Z"/>
    <use fill="#DE1E23" fill-rule="evenodd" xlink:href="#site_logo_new-a"/>
    <ellipse cx="22" cy="21.5" stroke="#FFF" stroke-width="2" rx="23" ry="22.5"/>
    <path fill="#FFF" d="M8.60964912 28.3528757L9.91447365 28.1131478C10.0323205 28.0910497 10.1379216 28.0288494 10.2118969 27.9379619 10.2907105 27.8407358 10.331462 27.7199833 10.3270285 27.5968106L10.3270285 17.2885071 7.44873903 17.2885071C7.35391819 17.2784351 7.25926133 17.3087575 7.18969297 17.3714899 7.13252737 17.4360945 7.09004373 17.5114686 7.0649671 17.5927773L6.42214912 19.5290417 6 19.5290417 6 16.624645 16.294682 16.624645 16.294682 19.5290417 15.8245614 19.5290417 15.1817435 17.5927773C15.1590411 17.5123981 15.119902 17.4371713 15.0666118 17.3714899 14.9903146 17.2942798 14.8766476 17.2625661 14.7691886 17.2885071L11.8908992 17.2885071 11.8908992 27.5599293C11.8883273 27.6843768 11.9326206 27.8055285 12.015625 27.9010807 12.0936726 27.9919868 12.2022301 28.0539304 12.3226425 28.0762665L13.6274671 28.3159945 13.6274671 28.7309083 8.60964912 28.7309083 8.60964912 28.3528757zM14.9418859 28.3528757L15.7094298 28.1315883C15.8315375 28.0963607 15.9411189 28.0293453 16.0260417 27.9379619 16.1169899 27.8441781 16.1886127 27.7346745 16.2371162 27.6152512L19.767818 18.4963674 20.4202303 16.7168481 21.1877741 16.4771201 25.5435855 27.6152512C25.5922952 27.7345746 25.6638949 27.8440429 25.7546601 27.9379619 25.8399044 28.0289808 25.9493716 28.0959264 26.0712719 28.1315883L26.8388158 28.3528757 26.8388158 28.7677896 22.502193 28.7677896 22.502193 28.3528757 24.2579496 28.0670462 22.7804276 24.2774999 18.6836623 24.2774999 17.3020834 27.9840634 18.3958333 28.3067742 18.3958333 28.721688 14.9418859 28.721688 14.9418859 28.3528757zM22.7132676 23.6044176L21.2549342 19.9162947 20.8135965 18.6715532 20.8135965 18.6715532 18.961897 23.558316 22.7132676 23.6044176zM27.6063596 26.259866L28.7480811 26.259866C28.7741979 26.6060956 28.8190318 26.9507859 28.8824013 27.2925404 28.9621083 27.4544206 29.0977269 27.5847528 29.2661732 27.6613527 29.5097393 27.7702876 29.7596006 27.8657206 30.0145285 27.9471822 30.2475055 28.021067 30.4845201 28.082628 30.7245065 28.1315883 30.9201854 28.1713301 31.1193797 28.1929431 31.3193531 28.1961306 31.6652291 28.2007443 32.0093202 28.147711 32.3363487 28.0393853 32.6300621 27.9419193 32.8984189 27.7846656 33.1230811 27.5783699 33.3452085 27.3682548 33.5156642 27.1130873 33.6219846 26.831525 33.7420284 26.5060501 33.8005155 26.1625614 33.794682 25.8172912 33.8155999 25.3413115 33.6591043 24.8737782 33.3533443 24.4987873 33.0280409 24.1343519 32.6168727 23.8498507 32.154057 23.6689597 31.9386351 23.5788617 31.7175297 23.5018739 31.4920504 23.438452L30.8300439 23.2540458 30.1680373 23.0696397C29.9428164 23.0091125 29.7217224 22.9352079 29.5060307 22.8483524 28.8887786 22.6202299 28.3526489 22.2266062 27.9613487 21.7142545 27.5863911 21.1887804 27.3948846 20.5623938 27.4144737 19.925515 27.4071841 18.9684116 27.8055194 18.0496726 28.517818 17.3807102 28.8709184 17.0505993 29.2882165 16.7905555 29.7458881 16.6154247 30.2341902 16.4288012 30.7554923 16.3348671 31.2809759 16.3388155 31.5822521 16.3381802 31.8833338 16.3535709 32.1828399 16.3849171 32.4802631 16.3849171 32.7680921 16.4586795 33.0559211 16.5140013 33.34375 16.5693232 33.6123904 16.624645 33.8810307 16.7076278 33.6315789 16.8274917 32.6913377 17.4821335 32.6913377 17.4821335 32.6913377 17.4821335 32.3075658 17.3438289 32.1060855 17.2885071 31.9138357 17.2366975 31.7183589 17.1966624 31.5208333 17.1686431 31.3579331 17.1575879 31.1944243 17.1575879 31.0315241 17.1686431 30.7228601 17.1591961 30.4147414 17.1997161 30.1200658 17.2885071 29.8614435 17.3744879 29.6233164 17.509287 29.419682 17.6849804 29.2283858 17.8582768 29.0779025 18.0689153 28.9783443 18.3027409 28.8742023 18.5517842 28.822043 18.8180795 28.8248355 19.086467 28.8226903 19.3277291 28.8451847 19.5686112 28.8919956 19.805651 28.9387517 20.0364963 29.0263713 20.2579219 29.1510417 20.4602928 29.2844096 20.6779851 29.4565229 20.871477 29.6595395 21.0319519 29.9071047 21.2201937 30.1860971 21.3667227 30.4846491 21.4653063L31.1178728 21.668153 31.7510965 21.8433389 32.4035088 22.0369653C32.6273757 22.1045809 32.8608369 22.1906371 33.1038926 22.2951339 33.3820186 22.4086709 33.6513451 22.5411661 33.9098136 22.6916071 34.1750211 22.8467897 34.4143698 23.0395082 34.6197917 23.2632662 34.8352462 23.5063196 35.0041608 23.7841539 35.1186952 24.0838735 35.2538623 24.4443599 35.3189056 24.8256583 35.3105811 25.208751 35.3082761 25.6777081 35.2206055 26.1426609 35.0515351 26.5825768 34.8820828 27.0394381 34.6102291 27.4549307 34.2552083 27.7996573 33.8549846 28.1777122 33.3782052 28.4727139 32.8544408 28.6663662 32.2019265 28.9027417 31.5079592 29.0154599 30.8108553 28.9982973 30.5344625 28.9980873 30.2585354 28.9765036 29.9857456 28.933755 29.6979167 28.933755 29.3717105 28.8599926 29.0263158 28.7862301 28.6809211 28.7124677 28.1244518 28.5188412 28.1244518 28.5188412 27.9423697 28.4459334 27.7713334 28.3497929 27.6159539 28.2330117L27.6063596 26.259866zM35.4832785 16.864373L37.4021382 15.2692599C37.8652503 14.9354441 38.4943297 14.9097962 38.9851974 15.2047177 39.647204 15.665733 41 16.9381355 41 16.9381355L39.7335526 18.1091145C39.7335526 18.1091145 38.3519737 16.6891871 37.9106359 16.3664764 37.4692982 16.0437656 35.4832785 16.836712 35.4832785 16.836712L35.4832785 16.864373zM35.0684674 17L36.7067841 15.2801418C37.0373435 14.8792481 37.0935292 14.3198306 36.8492465 13.8617022 36.344644 13.2034882 35.7942151 12.581389 35.2020259 12L34 12.9751773C34.5868295 13.5330084 35.1398457 14.1250685 35.6561245 14.748227 35.9232413 15.1737589 35.0773713 16.964539 35.0773713 16.964539"/>
  </g>
</svg>
