<svg width="60" height="60" viewBox="0 0 60 60" fill="none" xmlns="http://www.w3.org/2000/svg">
<path d="M48.014 42.889L38.461 38.113C37.56 37.662 37 36.756 37 35.748V32.367C37.229 32.087 37.47 31.768 37.719 31.416C38.958 29.666 39.951 27.718 40.673 25.617C42.084 24.97 43 23.575 43 22V18C43 17.037 42.64 16.104 42 15.375V10.056C42.056 9.506 42.276 6.232 39.908 3.531C37.854 1.188 34.521 0 30 0C25.479 0 22.146 1.188 20.092 3.53C17.724 6.231 17.944 9.506 18 10.056V15.375C17.36 16.104 17 17.037 17 18V22C17 23.217 17.553 24.352 18.497 25.109C19.413 28.736 21.33 31.469 22 32.346V35.655C22 36.623 21.472 37.511 20.623 37.975L11.702 42.841C8.801 44.424 7 47.458 7 50.762V54C7 58.746 22.045 60 30 60C37.955 60 53 58.746 53 54V50.957C53 47.519 51.089 44.427 48.014 42.889ZM51 54C51 55.357 43.588 58 30 58C16.412 58 9 55.357 9 54V50.762C9 48.191 10.402 45.828 12.659 44.598L21.58 39.732C23.073 38.917 24 37.354 24 35.655V31.636L23.767 31.358C23.743 31.329 21.292 28.364 20.357 24.293L20.266 23.897L19.925 23.677C19.346 23.303 19 22.676 19 22V18C19 17.439 19.238 16.916 19.67 16.525L20 16.228V10L19.991 9.869C19.988 9.842 19.648 7.07 21.596 4.848C23.253 2.958 26.081 2 30 2C33.905 2 36.727 2.951 38.386 4.828C40.333 7.029 40.011 9.845 40.009 9.869L40 16.228L40.33 16.526C40.762 16.916 41 17.439 41 18V22C41 22.873 40.428 23.637 39.578 23.899L39.08 24.052L38.92 24.547C38.251 26.628 37.298 28.55 36.086 30.26C35.789 30.681 35.5 31.054 35.249 31.339L35 31.623V35.748C35 37.518 35.983 39.109 37.566 39.901L47.119 44.677C49.513 45.874 51 48.28 51 50.957V54Z" fill="#0DB981"/>
</svg>
